<svg width="309" height="37" viewBox="0 0 309 37" fill="none" xmlns="http://www.w3.org/2000/svg">
<path d="M33.1064 33.7051C31.7881 34.4538 29.8187 35.1292 27.1982 35.7314C24.5778 36.3174 22.0794 36.6104 19.7031 36.6104C13.5671 36.6104 8.83073 35.0804 5.49414 32.0205C2.15755 28.9443 0.489258 24.6393 0.489258 19.1055C0.489258 15.3945 1.32747 12.0986 3.00391 9.21777C4.69661 6.33691 7.07292 4.14779 10.1328 2.65039C13.1927 1.15299 16.7979 0.404297 20.9482 0.404297C23.9919 0.404297 27.2389 0.835612 30.6895 1.69824V10.9023C29.0781 10.1699 27.5319 9.66536 26.0508 9.38867C24.5697 9.0957 22.9502 8.94922 21.1924 8.94922C18.2952 8.94922 15.984 9.81999 14.2588 11.5615C12.5498 13.3031 11.6953 15.6956 11.6953 18.7393C11.6953 21.6527 12.4115 23.9313 13.8438 25.5752C15.2923 27.2191 17.3105 28.041 19.8984 28.041C21.1029 28.041 21.9899 27.9759 22.5596 27.8457V22.8408H15.8457V14.8574H33.1064V33.7051ZM60.7676 36L59.2295 29.5547H48.7803L47.1201 36H35.7188L47.7793 0.990234H60.8652L72.2178 36H60.7676ZM54.127 8.60742H53.8828C53.8503 8.99805 53.7363 9.64095 53.541 10.5361C53.3457 11.4313 52.361 15.2725 50.5869 22.0596H57.2764L54.835 12.5381C54.4932 11.1383 54.2572 9.82812 54.127 8.60742ZM108.375 36V16.8105C108.375 15.0039 108.432 13.0182 108.546 10.8535L108.619 9.24219H108.326C107.805 11.9928 107.407 13.8971 107.13 14.9551L101.979 36H92.0664L86.6709 15.1992C86.5244 14.6784 86.1419 12.6927 85.5234 9.24219H85.2305C85.4583 14.7109 85.5723 18.1289 85.5723 19.4961V36H76.3193V0.990234H92.1152L96.9248 20.0088C97.0387 20.3994 97.1852 21.1969 97.3643 22.4014C97.5596 23.5895 97.6816 24.5091 97.7305 25.1602H97.877C98.056 23.679 98.3408 21.9294 98.7314 19.9111L103.224 0.990234H118.775V36H108.375ZM125.685 36V0.990234H147.486V9.24219H136.231V14.3447H146.803V22.5967H136.231V27.748H148.292V36H125.685ZM177.589 25.4043C177.589 27.7318 176.962 29.7581 175.709 31.4834C174.472 33.2087 172.73 34.4945 170.484 35.3408C168.238 36.1872 165.536 36.6104 162.379 36.6104C158.717 36.6104 155.364 35.9919 152.32 34.7549V25.1602C153.785 26.2344 155.405 27.1051 157.179 27.7725C158.953 28.4235 160.605 28.749 162.135 28.749C163.29 28.749 164.186 28.5456 164.82 28.1387C165.455 27.7155 165.772 27.1051 165.772 26.3076C165.772 25.738 165.61 25.2415 165.284 24.8184C164.975 24.3789 164.495 23.972 163.844 23.5977C163.209 23.2233 162.021 22.7106 160.279 22.0596C154.648 19.8949 151.832 16.3955 151.832 11.5615C151.832 8.17611 153.118 5.47428 155.689 3.45605C158.261 1.42155 161.712 0.404297 166.041 0.404297C167.262 0.404297 168.385 0.453125 169.41 0.550781C170.436 0.648438 171.363 0.770508 172.193 0.916992C173.04 1.06348 174.22 1.34017 175.733 1.74707V10.6582C172.787 9.04688 169.89 8.24121 167.042 8.24121C165.87 8.24121 164.926 8.46094 164.21 8.90039C163.494 9.33984 163.136 9.94206 163.136 10.707C163.136 11.4395 163.421 12.0498 163.99 12.5381C164.576 13.0101 165.789 13.6286 167.628 14.3936C171.257 15.8584 173.821 17.4616 175.318 19.2031C176.832 20.9447 177.589 23.0117 177.589 25.4043ZM199.586 9.24219V36H188.99V9.24219H179.2V0.990234H209.498V9.24219H199.586ZM247.022 18.3975C247.022 21.9131 246.266 25.0625 244.752 27.8457C243.238 30.6126 241.122 32.7692 238.404 34.3154C235.686 35.8454 232.643 36.6104 229.273 36.6104C225.986 36.6104 222.991 35.8698 220.289 34.3887C217.604 32.8913 215.512 30.7998 214.015 28.1143C212.517 25.4124 211.769 22.3607 211.769 18.959C211.769 15.3945 212.525 12.1882 214.039 9.33984C215.553 6.49154 217.677 4.29427 220.411 2.74805C223.146 1.18555 226.254 0.404297 229.737 0.404297C233.09 0.404297 236.085 1.15299 238.722 2.65039C241.375 4.13151 243.417 6.25553 244.85 9.02246C246.298 11.7731 247.022 14.8981 247.022 18.3975ZM235.841 18.6904C235.841 15.8096 235.287 13.5391 234.181 11.8789C233.074 10.2188 231.56 9.38867 229.64 9.38867C227.54 9.38867 225.904 10.1862 224.732 11.7812C223.561 13.3763 222.975 15.6305 222.975 18.5439C222.975 21.3923 223.552 23.6139 224.708 25.209C225.88 26.804 227.467 27.6016 229.469 27.6016C230.689 27.6016 231.788 27.2435 232.765 26.5273C233.741 25.8112 234.498 24.7858 235.035 23.4512C235.572 22.1165 235.841 20.5296 235.841 18.6904ZM270.167 36L267.555 28.4561C267.05 26.9749 266.391 25.8112 265.577 24.9648C264.78 24.1185 263.909 23.6953 262.965 23.6953H262.55V36H252.003V0.990234H266.017C270.916 0.990234 274.529 1.7959 276.856 3.40723C279.2 5.00228 280.372 7.40299 280.372 10.6094C280.372 13.0182 279.688 15.0365 278.321 16.6641C276.97 18.2917 274.952 19.4717 272.267 20.2041V20.3018C273.748 20.7575 274.977 21.498 275.953 22.5234C276.946 23.5488 277.833 25.0706 278.614 27.0889L282.057 36H270.167ZM269.166 12.0986C269.166 10.9268 268.808 9.99902 268.092 9.31543C267.376 8.63184 266.253 8.29004 264.723 8.29004H262.55V16.2979H264.454C265.87 16.2979 267.009 15.8991 267.872 15.1016C268.735 14.304 269.166 13.3031 269.166 12.0986ZM286.134 36V0.990234H307.936V9.24219H296.681V14.3447H307.252V22.5967H296.681V27.748H308.741V36H286.134Z" fill="#107C10"/>
</svg>
